{"glyphs":{":":{"x_min":0,"x_max":243,"ha":243,"o":"m 136 389 q 142 389 149 380 l 163 364 q 169 356 180 349 q 187 342 187 338 q 187 333 178 325 q 147 301 138 288 q 131 279 125 279 q 119 279 113 289 q 102 307 85 321 q 77 329 77 334 q 77 342 88 351 q 101 359 106 365 l 122 380 q 130 389 136 389 z m 118 104 q 125 104 132 95 l 146 79 q 151 72 162 63 q 170 56 169 51 q 169 47 160 40 q 131 17 120 2 q 113 -7 107 -7 q 101 -7 95 3 q 85 19 67 35 q 59 43 59 50 q 60 58 71 65 q 84 74 89 79 l 104 95 q 112 103 118 104 z"},"$":{"x_min":0,"x_max":500,"ha":500,"o":"m 241 338 l 219 348 q 102 401 102 500 q 102 569 153 615 q 204 662 280 662 l 285 705 q 288 728 301 728 q 318 728 317 714 l 316 701 l 312 660 q 359 653 402 625 q 444 597 444 572 q 444 558 435 542 q 426 525 417 525 q 408 525 402 539 q 383 579 363 598 q 342 617 307 628 l 280 396 l 313 380 q 383 347 413 308 q 443 268 443 208 q 443 125 384 70 q 324 14 234 14 l 222 -90 q 219 -113 206 -113 q 188 -113 189 -99 l 191 -86 l 203 16 q 146 23 110 46 q 85 62 68 83 q 51 104 51 118 q 51 136 63 161 q 75 187 83 186 q 90 186 94 171 q 110 110 136 81 q 162 51 206 43 z m 271 324 l 238 42 q 301 45 342 86 q 384 128 384 188 q 384 227 360 261 q 336 294 296 312 z m 276 634 q 269 634 265 634 q 217 634 183 603 q 148 571 148 527 q 148 458 230 419 l 250 410 z"},"?":{"x_min":0,"x_max":284,"ha":284,"o":"m 238 431 l 188 367 q 130 293 130 243 q 130 235 132 227 q 134 219 134 214 q 134 208 127 208 q 119 208 112 225 q 105 242 105 264 q 105 310 145 378 l 188 451 q 217 501 217 527 q 217 557 193 580 q 169 603 139 603 q 125 603 116 595 l 98 583 q 94 580 89 579 q 81 579 82 586 q 84 604 115 622 q 146 640 174 640 q 218 640 252 608 q 287 577 287 537 q 287 495 238 431 z m 114 104 q 121 104 128 95 l 142 79 q 147 72 158 63 q 166 56 166 51 q 165 46 156 40 q 129 20 116 2 q 109 -7 103 -7 q 97 -7 91 3 q 80 21 64 35 q 55 43 55 49 q 55 57 67 65 q 80 74 85 79 l 100 95 q 108 103 114 104 z"},"<":{"x_min":0,"x_max":500,"ha":500,"o":"m 456 608 l 456 576 l 129 362 l 456 145 l 456 61 l 44 335 l 44 341 z"},"'":{"x_min":0,"x_max":153,"ha":153,"o":"m 93 422 l 91 572 l 91 579 q 91 624 101 642 q 111 660 136 660 q 166 660 166 625 q 166 607 156 571 l 117 422 q 113 407 103 407 q 93 407 93 422 z"},"=":{"x_min":0,"x_max":500,"ha":500,"o":"m 99 416 q 104 416 113 416 q 141 414 163 414 l 269 411 l 391 412 l 446 411 q 466 411 466 399 q 466 391 458 381 q 453 374 451 372 q 441 358 427 358 l 407 358 l 329 361 l 244 361 l 143 362 l 110 361 q 96 359 90 359 q 69 359 67 370 l 68 374 l 73 388 l 78 404 q 83 416 99 416 z m 99 296 q 104 296 113 295 q 141 294 163 294 l 269 291 l 391 292 l 446 291 q 466 291 466 279 q 466 271 458 261 q 453 254 451 252 q 441 238 427 238 l 407 238 l 329 241 l 244 241 l 143 242 l 110 241 q 96 239 90 239 q 69 239 67 250 l 68 253 l 73 268 l 78 284 q 83 296 99 296 z"},"a":{"x_min":0,"x_max":452,"ha":452,"o":"m 279 104 q 194 -7 104 -7 q 69 -7 46 21 q 23 48 23 91 q 23 149 51 214 q 78 279 122 327 q 187 396 257 396 q 282 396 312 387 q 323 384 330 384 q 344 384 366 417 q 376 434 382 434 q 388 433 388 424 q 388 420 386 416 q 385 413 380 389 l 369 335 q 358 290 349 218 q 339 146 339 120 q 339 59 358 59 q 368 59 383 75 q 398 91 407 110 q 414 126 421 126 q 430 126 430 116 q 430 84 391 41 q 352 -2 325 -2 q 306 -2 296 20 q 287 42 279 104 z m 258 376 q 206 376 159 317 q 128 279 107 220 q 85 161 85 115 q 85 42 151 42 q 192 42 235 87 q 278 131 285 180 q 288 208 292 226 l 301 270 q 309 307 312 319 q 315 333 315 344 q 315 356 297 366 q 279 376 258 376 z"},"L":{"x_min":0,"x_max":543,"ha":543,"o":"m 111 90 l 169 564 q 171 579 171 594 q 171 637 125 646 q 98 651 98 660 q 98 670 114 670 q 118 670 128 669 l 139 667 q 164 665 200 665 q 232 665 256 667 l 271 669 q 283 670 286 670 q 304 670 304 660 q 304 653 294 650 l 287 648 q 260 641 253 630 q 246 619 241 577 l 181 90 q 179 77 179 70 q 179 40 269 40 q 458 40 507 107 q 525 132 534 132 q 542 132 542 121 q 540 89 509 43 q 491 17 468 7 q 445 -3 406 -3 l 292 0 l 155 3 q 118 3 90 0 q 72 -3 65 -3 q 47 -3 47 6 q 47 14 64 19 q 103 28 108 64 z"},"3":{"x_min":0,"x_max":500,"ha":500,"o":"m 297 394 q 365 382 392 354 q 419 325 419 267 q 419 157 342 75 q 265 -7 162 -7 q 120 -7 79 12 q 38 31 38 50 q 38 67 54 67 q 61 67 71 61 q 123 34 161 34 q 229 34 283 96 q 337 158 337 236 q 337 288 310 316 q 282 345 233 345 q 220 345 212 344 q 201 342 197 342 q 185 341 185 354 q 185 365 203 372 q 254 391 293 439 q 332 486 332 531 q 332 563 311 583 q 291 603 258 603 q 217 603 187 576 l 158 551 q 150 544 141 544 q 126 543 126 557 q 126 574 168 609 q 229 660 292 660 q 345 660 376 634 q 406 607 406 561 q 406 519 382 482 q 358 445 297 394 z"},";":{"x_min":0,"x_max":226,"ha":226,"o":"m 88 104 q 98 105 115 85 q 142 52 142 6 q 142 -56 89 -114 q 55 -152 38 -153 q 29 -153 30 -145 q 30 -138 48 -121 q 65 -105 77 -79 q 89 -54 89 -34 q 89 13 55 31 l 46 36 q 38 41 38 46 q 39 53 56 74 q 65 84 68 87 q 81 104 88 104 z m 107 389 q 113 389 121 380 l 134 364 q 141 357 151 349 q 159 342 158 337 q 158 332 149 325 q 122 305 109 288 q 102 279 96 279 q 90 279 83 289 q 72 309 57 321 q 48 328 48 334 q 48 343 60 351 q 71 359 77 365 l 92 380 q 101 389 107 389 z"},"J":{"x_min":0,"x_max":293,"ha":293,"o":"m 118 167 l 167 564 q 169 582 169 594 q 169 637 124 646 q 96 651 96 660 q 96 670 112 670 q 116 670 125 669 l 137 667 q 162 665 197 665 q 231 665 254 667 l 269 669 q 281 670 284 670 q 302 670 302 660 q 302 653 292 650 l 284 648 q 258 641 250 629 q 243 618 238 577 l 194 214 q 176 68 114 0 q 60 -61 2 -61 q -17 -61 -30 -53 q -42 -45 -42 -34 q -41 -11 -32 12 q -22 35 -14 35 q -5 35 2 14 q 14 -16 40 -16 q 67 -16 87 22 q 104 56 118 167 z"},"V":{"x_min":0,"x_max":652,"ha":652,"o":"m 280 13 l 126 573 q 115 611 102 626 q 88 642 61 647 q 44 651 44 660 q 44 670 60 670 q 66 670 74 669 q 105 665 143 665 q 177 665 198 667 l 212 668 q 224 670 230 670 q 251 670 251 658 q 252 650 232 647 q 200 644 200 608 q 200 585 231 461 q 263 336 289 252 l 320 156 q 332 119 337 119 q 345 118 398 214 q 451 311 498 409 l 547 513 q 585 593 585 613 q 585 645 544 647 q 519 648 518 659 q 517 670 533 670 q 538 670 547 669 q 577 665 615 665 q 648 665 670 667 l 684 669 q 696 670 699 670 q 716 670 716 659 q 716 650 696 649 q 672 647 652 620 q 631 593 590 505 q 572 467 534 395 l 474 280 q 322 -10 295 -10 q 287 -10 280 13 z"},"\"":{"x_min":0,"x_max":279,"ha":279,"o":"m 93 422 l 91 572 l 91 579 q 91 624 101 642 q 111 660 136 660 q 166 660 166 625 q 166 607 156 571 l 117 422 q 113 407 103 407 q 93 407 93 422 z m 220 422 l 217 572 l 217 579 l 217 593 q 217 660 262 660 q 292 660 292 625 q 292 608 282 571 l 243 422 q 239 407 229 407 q 220 407 220 422 z"},"7":{"x_min":0,"x_max":500,"ha":500,"o":"m 418 575 l 250 575 q 209 575 190 562 q 170 550 154 514 q 146 496 134 497 q 121 498 121 510 q 121 519 124 528 l 158 636 q 163 653 178 653 q 185 653 204 651 q 243 646 314 646 q 390 646 426 651 q 444 653 451 653 q 474 653 474 631 q 474 610 454 553 q 434 496 410 449 l 342 314 q 255 140 255 37 q 255 15 263 -21 q 264 -26 264 -29 q 264 -40 242 -49 q 220 -58 195 -58 q 165 -58 165 -15 q 165 94 246 235 l 335 392 q 375 461 390 493 q 404 526 418 575 z"},"S":{"x_min":0,"x_max":440,"ha":440,"o":"m 211 428 l 324 311 q 399 232 399 153 q 399 80 340 35 q 281 -10 186 -10 q 86 -10 62 10 q 52 19 41 56 q 31 94 31 121 q 31 138 42 138 q 49 138 54 125 q 71 76 114 46 q 156 17 210 17 q 266 17 302 49 q 338 81 338 130 q 338 157 325 182 q 312 206 277 244 l 166 364 q 116 417 98 454 q 80 492 80 540 q 80 599 122 638 q 164 677 229 677 q 268 677 334 654 q 354 648 356 648 q 361 648 372 655 q 377 658 382 659 q 395 659 395 630 l 395 614 l 405 519 q 406 504 392 504 q 380 504 375 526 q 359 581 316 616 q 273 652 223 652 q 187 652 163 628 q 140 604 140 567 q 140 501 211 428 z"},"}":{"x_min":0,"x_max":257,"ha":257,"o":"m 231 557 l 214 421 q 211 391 211 378 q 211 334 251 301 q 259 295 259 291 q 259 286 249 279 q 217 258 202 232 q 188 206 183 159 l 166 23 q 158 -43 127 -78 q 96 -113 45 -113 l 14 -113 q -15 -113 -15 -104 q -15 -94 4 -91 q 57 -83 78 -57 q 99 -30 107 39 l 124 171 q 133 244 175 274 l 186 282 q 194 287 194 290 q 195 293 188 299 l 179 306 q 152 330 152 385 q 152 399 153 409 l 169 542 q 173 570 173 592 q 173 664 95 673 q 81 675 82 683 q 83 693 113 693 l 144 693 q 185 693 209 668 q 234 642 234 600 q 234 578 231 557 z"},"Z":{"x_min":0,"x_max":531,"ha":531,"o":"m 154 64 l 406 64 q 475 64 475 91 q 475 104 454 107 q 425 112 425 139 q 425 154 437 164 q 448 175 465 175 q 484 175 497 159 q 509 144 509 120 q 509 69 463 31 q 417 -7 360 -4 l 175 4 l 107 0 l 59 -3 l 54 -3 q 39 -3 39 5 q 39 12 57 32 q 74 51 113 114 q 138 154 196 236 q 270 340 342 454 l 405 550 q 423 579 423 587 q 423 596 411 596 q 389 596 369 598 l 292 603 q 262 605 235 605 q 169 605 129 578 q 89 551 89 507 q 89 476 104 467 l 119 458 q 125 455 125 450 q 125 439 106 439 q 65 439 65 502 q 65 576 118 624 q 170 671 252 671 q 264 671 277 670 l 408 660 l 442 657 q 452 657 460 657 q 471 657 486 659 q 501 662 506 662 q 517 662 516 652 q 516 648 504 629 l 491 608 l 141 87 q 133 76 134 71 q 134 64 154 64 z"},"x":{"x_min":0,"x_max":370,"ha":370,"o":"m 212 229 q 218 215 218 213 l 235 163 q 256 103 277 64 q 296 28 326 28 q 332 28 336 29 q 349 31 352 31 q 363 31 363 21 q 363 12 344 5 q 325 -2 298 -2 q 251 -2 231 15 q 211 33 195 88 l 174 160 l 156 127 l 128 75 q 83 -7 22 -7 q 9 -7 0 2 q -10 11 -10 24 q -10 37 0 47 q 9 57 21 57 q 28 57 34 55 q 55 48 58 48 q 84 47 127 127 l 164 193 l 132 275 l 121 302 q 109 331 90 331 q 65 331 58 298 l 55 283 q 53 273 43 273 q 34 273 34 289 q 34 331 55 364 q 77 397 104 397 q 151 397 199 259 l 221 300 q 244 344 273 371 q 303 397 329 397 q 342 397 352 387 q 361 378 361 364 q 361 335 334 335 q 329 335 315 339 q 306 342 300 342 q 285 342 266 323 q 247 303 234 275 z"},")":{"x_min":0,"x_max":265,"ha":265,"o":"m 103 693 q 123 694 151 644 q 190 573 214 482 q 238 392 238 316 q 238 221 200 125 q 162 29 94 -47 q 35 -114 15 -114 q 2 -114 2 -103 q 2 -97 18 -86 q 83 -40 125 93 q 167 225 167 381 q 167 473 151 550 q 134 627 106 662 l 101 669 q 93 679 93 685 q 92 693 103 693 z"},"&":{"x_min":0,"x_max":731,"ha":731,"o":"m 546 345 q 577 325 588 302 q 600 280 600 244 q 600 142 508 66 q 417 -10 294 -10 q 181 -10 112 48 q 43 107 43 205 q 43 275 76 327 q 109 379 185 428 q 178 460 178 484 q 178 563 233 620 q 289 677 366 677 q 414 677 444 655 q 473 632 473 595 q 473 567 454 547 q 436 526 410 526 q 391 526 391 541 q 391 545 397 557 q 405 571 405 581 q 405 599 388 610 q 371 622 345 622 q 293 622 253 577 q 212 531 212 473 q 212 462 214 443 q 245 458 282 458 q 319 458 342 441 q 364 423 364 394 q 364 365 344 347 q 324 329 291 329 q 229 329 195 398 q 119 341 119 248 q 119 160 182 95 q 246 31 333 31 q 419 31 484 89 q 549 147 549 224 q 549 259 524 285 q 500 312 467 312 q 436 312 414 290 q 392 268 392 237 q 392 218 403 205 q 414 192 430 192 q 444 192 453 208 q 458 216 464 216 q 476 216 475 202 q 474 184 460 172 q 445 160 425 160 q 393 160 369 189 q 346 218 346 258 q 346 339 470 392 l 540 422 q 701 491 701 581 q 701 609 682 630 q 664 650 637 650 q 617 650 602 635 q 587 619 587 600 q 587 582 610 577 q 637 572 637 558 q 637 542 623 529 q 610 516 594 516 q 570 516 555 533 q 541 551 541 579 q 541 618 570 647 q 600 676 639 676 q 684 676 713 644 q 742 612 742 562 q 742 498 692 443 q 663 410 579 364 q 568 357 546 345 z m 222 414 q 242 364 279 364 q 293 364 303 375 q 313 385 313 399 q 313 429 277 429 q 255 429 222 414 z"},"_":{"x_min":0,"x_max":500,"ha":500,"o":"m 26 -87 l 474 -87 l 474 -122 l 26 -122 z"},"v":{"x_min":0,"x_max":391,"ha":391,"o":"m 175 297 l 159 166 q 158 154 158 138 q 158 53 200 53 q 220 53 244 73 q 269 93 288 126 q 336 207 336 297 q 336 317 323 351 q 319 362 319 367 q 319 378 327 386 q 335 394 347 394 q 375 394 375 348 q 375 294 356 228 q 336 162 308 117 q 277 68 232 31 q 188 -7 161 -7 q 138 -7 122 28 q 105 62 105 111 l 105 123 q 105 126 104 131 q 103 138 91 139 q 27 148 27 235 q 27 292 62 345 q 97 397 136 397 q 177 397 177 325 q 177 310 175 297 z m 107 327 q 98 328 76 298 q 49 260 49 223 q 49 200 60 183 q 71 166 86 166 q 97 166 101 176 q 105 185 109 220 q 110 232 113 252 l 116 273 q 119 292 119 302 q 119 325 107 327 z"},"O":{"x_min":0,"x_max":738,"ha":738,"o":"m 403 677 q 539 677 627 586 q 716 495 716 356 q 716 235 653 137 q 561 -10 371 -10 q 227 -10 141 74 q 56 158 56 299 q 56 456 158 566 q 259 677 403 677 z m 390 650 q 280 650 207 555 q 133 459 133 316 q 133 187 202 103 q 271 19 378 19 q 491 19 563 116 q 635 213 635 366 q 635 516 548 590 q 477 650 390 650 z"},"(":{"x_min":0,"x_max":265,"ha":265,"o":"m 275 693 q 288 693 288 683 q 288 676 272 666 q 208 620 165 488 q 122 355 122 198 q 122 106 139 30 q 155 -47 184 -83 l 188 -89 q 197 -100 197 -106 q 197 -114 187 -114 q 166 -114 139 -64 q 100 7 76 98 q 52 188 52 264 q 52 358 89 453 q 127 548 195 626 q 254 693 275 693 z"},"C":{"x_min":0,"x_max":656,"ha":656,"o":"m 388 677 q 501 677 599 614 q 606 609 611 609 q 615 609 618 611 l 625 618 q 628 622 634 622 q 644 622 644 605 l 644 559 l 650 485 q 651 474 651 467 q 651 450 641 450 q 630 450 625 473 q 607 544 551 588 q 475 648 389 648 q 275 648 204 561 q 132 474 132 335 q 132 197 201 108 q 270 19 376 19 q 449 19 514 62 q 580 104 599 164 q 607 193 620 193 q 631 193 630 174 q 629 157 624 138 l 614 106 l 610 85 q 608 73 603 67 q 597 62 575 48 q 475 -10 363 -10 q 221 -10 140 75 q 58 160 58 308 q 58 469 151 573 q 244 677 388 677 z"},"W":{"x_min":0,"x_max":890,"ha":890,"o":"m 494 363 l 522 260 q 528 240 533 222 l 546 181 l 560 138 q 565 123 566 119 q 568 111 572 111 q 580 110 647 236 q 714 363 764 471 q 793 534 802 550 q 824 590 824 615 q 824 628 811 638 q 797 647 780 647 q 754 647 754 658 q 754 670 769 670 q 771 670 792 667 q 814 665 849 665 q 882 665 904 667 l 917 669 l 925 669 l 932 670 q 947 670 947 658 q 947 650 932 648 q 901 645 881 617 q 861 589 803 471 q 690 239 621 117 l 564 19 q 548 -10 539 -10 q 531 -10 524 15 q 519 32 510 62 q 486 136 473 185 l 447 276 l 361 119 q 348 96 335 75 q 317 44 314 40 l 302 18 q 288 -7 277 -7 q 269 -7 261 21 l 115 588 q 107 619 95 631 q 84 644 62 646 q 44 648 44 658 q 44 670 62 670 l 69 670 l 76 669 l 87 668 l 102 667 q 114 665 145 665 q 179 665 201 667 l 215 669 l 223 669 q 227 670 229 670 q 241 670 242 661 q 242 651 223 649 q 188 646 188 605 q 188 585 204 523 l 301 140 l 306 125 q 310 111 313 110 q 317 110 327 128 q 330 133 334 140 l 344 157 l 435 322 l 370 573 q 352 643 312 646 q 289 649 289 659 q 289 670 304 670 q 310 670 318 669 q 349 665 385 665 q 418 665 440 667 l 453 669 l 460 669 l 467 670 q 482 670 481 660 q 481 653 473 652 q 437 644 437 608 q 437 584 447 547 l 457 508 l 481 411 l 539 523 q 572 587 572 616 q 572 629 560 640 q 548 650 532 650 q 512 650 512 660 q 512 670 525 670 q 530 670 539 669 q 567 665 601 665 q 631 665 652 667 l 664 669 l 671 669 l 677 670 q 689 670 689 660 q 689 652 668 649 q 653 647 641 633 q 629 619 609 582 l 586 538 z"},"A":{"x_min":0,"x_max":636,"ha":636,"o":"m 417 241 l 215 241 q 192 241 186 239 q 180 236 174 225 l 112 100 q 97 70 97 53 q 97 28 131 21 q 164 14 163 4 q 163 -3 148 -3 q 143 -3 136 -2 q 108 2 73 2 q 41 2 9 -2 q -1 -3 -7 -3 q -22 -3 -22 6 q -22 16 -7 20 l 12 25 q 37 32 57 73 l 73 106 l 353 652 q 362 670 372 670 q 381 670 387 652 l 546 144 l 560 102 q 575 54 585 41 q 594 28 620 20 q 634 16 634 8 q 634 -3 614 -3 q 609 -3 601 -2 q 572 2 537 2 q 506 2 485 0 l 472 -2 q 462 -3 458 -3 q 439 -3 439 7 q 439 14 461 20 q 499 29 499 57 q 499 76 491 100 l 457 206 l 452 223 q 448 236 442 239 q 437 241 417 241 z m 419 325 l 355 526 q 352 538 351 542 q 348 553 343 553 q 340 552 335 542 q 333 535 328 526 l 214 306 l 209 297 q 207 292 207 289 q 207 284 216 284 l 398 284 q 428 284 428 295 q 428 299 425 308 q 422 314 419 325 z"},"f":{"x_min":0,"x_max":264,"ha":264,"o":"m 122 360 l 57 360 q 33 360 33 374 q 33 394 61 394 l 126 394 l 128 406 q 151 540 212 620 q 237 653 259 667 q 281 680 312 680 q 332 680 339 675 q 347 671 347 659 q 347 598 335 598 q 331 598 327 603 l 315 615 q 297 636 271 636 q 243 636 223 583 q 202 530 184 412 l 181 394 l 254 394 q 278 394 278 380 q 278 360 250 360 l 177 360 l 132 -3 q 122 -84 86 -123 q 45 -167 3 -167 q -21 -167 -21 -146 q -21 -127 -13 -105 q -4 -83 2 -83 q 8 -83 10 -94 q 16 -127 36 -127 q 60 -127 68 -61 l 72 -27 l 100 196 q 110 279 122 360 z"},"Q":{"x_min":0,"x_max":746,"ha":746,"o":"m 381 -9 q 458 -59 529 -91 q 600 -123 637 -123 q 674 -123 697 -86 q 703 -76 707 -76 q 713 -76 713 -83 q 713 -112 674 -144 q 634 -175 597 -175 q 551 -175 481 -143 q 411 -110 290 -33 l 208 20 q 178 38 156 38 q 127 38 107 13 q 86 -11 86 -46 q 86 -74 99 -96 q 108 -110 108 -118 q 108 -125 98 -125 q 83 -125 70 -94 q 56 -63 56 -30 q 56 54 133 83 q 89 140 73 184 q 57 229 57 292 q 57 481 181 591 q 279 677 406 677 q 541 677 628 585 q 715 494 715 353 q 715 232 653 137 q 605 64 543 31 q 480 -2 381 -9 z m 390 650 q 281 650 208 557 q 134 464 134 326 q 134 189 201 104 q 268 19 376 19 q 437 19 490 49 q 543 79 576 132 q 602 174 619 241 q 636 308 636 369 q 636 494 568 572 q 500 650 390 650 z"},"w":{"x_min":0,"x_max":606,"ha":606,"o":"m 320 169 q 279 90 255 61 q 201 -7 158 -7 q 136 -7 120 28 q 104 63 104 113 l 104 123 l 104 133 q 104 143 94 143 q 64 143 45 168 q 26 193 26 232 q 26 289 61 343 q 96 397 132 397 q 172 397 172 304 q 172 288 170 266 l 160 181 q 158 162 158 146 q 158 105 167 78 q 177 52 191 52 q 208 52 235 79 q 261 106 280 143 q 320 222 335 324 l 342 369 q 346 392 359 393 q 395 395 395 377 q 395 372 394 364 l 390 337 q 373 227 373 159 q 373 111 385 79 q 397 48 415 48 q 432 48 458 73 q 484 98 504 133 q 553 217 553 287 q 553 317 541 350 q 536 361 536 366 q 536 377 546 386 q 556 395 569 395 q 590 395 590 350 q 590 270 552 179 q 513 88 457 40 q 405 -6 378 -6 q 351 -6 335 41 q 320 88 320 169 z m 102 322 q 88 324 71 289 q 54 254 54 225 q 54 202 63 187 q 72 172 87 172 q 100 172 104 182 q 108 192 111 228 l 112 251 l 114 275 q 115 283 115 290 q 115 320 102 322 z"},"-":{"x_min":0,"x_max":153,"ha":153,"o":"m 151 249 q 158 248 158 235 q 158 212 152 203 q 146 194 127 189 q 77 177 20 153 q 12 150 7 150 q -2 150 -2 168 q -2 193 6 200 q 14 208 53 217 q 105 229 133 244 q 146 250 151 249 z"},"E":{"x_min":0,"x_max":576,"ha":576,"o":"m 111 90 l 169 564 q 171 583 171 594 q 171 637 125 646 q 98 651 98 660 q 98 670 113 670 q 128 670 152 667 q 199 663 334 663 q 461 663 520 668 q 547 670 559 670 q 573 670 573 658 l 572 610 l 574 537 q 574 521 562 521 q 551 521 549 542 q 546 595 520 611 q 494 626 405 626 l 366 626 l 278 628 q 257 628 251 623 q 246 618 243 596 l 217 384 q 216 377 216 374 q 215 363 237 363 l 373 363 q 439 363 454 423 q 458 435 465 436 q 475 436 475 423 q 475 407 468 376 q 461 340 459 290 q 457 253 454 243 q 452 232 444 232 q 435 232 435 245 l 434 267 q 434 321 357 321 l 241 321 q 218 321 213 318 q 208 314 207 298 l 181 89 q 180 83 180 78 q 180 54 195 47 q 210 40 259 40 q 474 40 525 118 q 538 136 545 136 q 555 136 555 125 q 555 110 539 82 q 524 53 504 31 q 484 10 466 3 q 447 -3 404 -3 q 384 -3 319 0 q 272 3 227 3 q 176 3 133 0 q 91 -3 65 -3 q 47 -3 47 6 q 47 14 65 19 q 91 25 99 37 q 106 48 111 90 z"},"s":{"x_min":0,"x_max":290,"ha":290,"o":"m 142 271 l 211 196 q 244 161 244 111 q 244 62 205 28 q 166 -7 109 -7 q 67 -7 37 11 q 7 28 7 53 q 7 84 36 84 q 53 84 68 60 l 78 42 q 92 18 118 18 q 147 18 168 36 q 189 55 189 80 q 189 119 150 160 l 96 216 q 58 255 58 300 q 58 347 90 374 q 122 400 178 400 q 256 400 256 355 q 256 325 226 325 q 211 325 201 340 l 190 355 q 175 377 149 377 q 107 377 107 332 q 107 308 142 271 z"},">":{"x_min":0,"x_max":500,"ha":500,"o":"m 44 61 l 44 93 l 371 307 l 44 524 l 44 608 l 456 334 l 456 328 z"},"l":{"x_min":0,"x_max":226,"ha":226,"o":"m 64 121 l 125 618 q 127 639 128 645 q 129 662 101 662 l 76 662 q 56 662 56 671 q 57 682 76 682 q 132 685 158 690 q 172 693 180 693 q 189 693 189 682 l 189 676 l 120 110 q 117 92 117 84 q 117 57 136 57 q 152 57 170 73 q 189 90 203 117 q 208 127 214 127 q 224 127 224 117 q 224 110 212 88 q 200 66 188 51 q 170 28 145 12 q 121 -3 103 -3 q 61 -3 61 76 q 61 96 64 121 z"},"8":{"x_min":0,"x_max":500,"ha":500,"o":"m 337 365 q 397 327 421 293 q 444 260 444 210 q 444 121 381 57 q 317 -7 229 -7 q 155 -7 106 40 q 57 87 57 158 q 57 279 192 351 q 151 387 137 411 q 123 434 123 468 q 123 544 180 602 q 237 660 312 660 q 376 660 419 623 q 462 585 462 530 q 462 420 337 365 z m 300 384 q 406 414 406 512 q 406 562 378 595 q 351 627 307 627 q 258 627 221 592 q 185 557 185 510 q 185 443 251 409 z m 221 330 q 113 282 113 170 q 113 111 149 70 q 186 30 239 30 q 298 30 339 71 q 380 113 380 172 q 380 239 306 282 z"},"\\":{"x_min":0,"x_max":495,"ha":495,"o":"m 445 -115 l 92 666 l 84 683 q 79 694 79 698 q 79 708 105 708 q 116 708 122 697 l 469 -75 q 479 -96 487 -114 q 490 -119 490 -124 q 490 -132 467 -132 q 453 -132 445 -115 z"},"e":{"x_min":0,"x_max":349,"ha":349,"o":"m 85 194 q 83 173 83 160 q 83 110 116 76 q 149 41 197 41 q 257 41 293 78 q 305 89 308 89 q 315 89 315 80 q 315 63 280 36 q 225 -7 156 -7 q 97 -7 62 31 q 27 68 27 132 q 27 231 93 316 q 158 400 234 400 q 271 400 295 380 q 319 360 319 329 q 319 271 242 227 q 184 194 85 194 z m 87 211 q 161 211 211 245 q 262 279 262 330 q 262 375 216 375 q 176 375 136 327 q 101 284 87 211 z"},"b":{"x_min":0,"x_max":421,"ha":421,"o":"m 140 302 q 171 350 211 376 q 252 402 297 402 q 342 402 370 368 q 398 335 398 281 q 398 188 333 96 q 299 48 253 21 q 208 -7 162 -7 q 114 -7 86 15 q 58 37 58 75 q 58 99 62 125 l 122 618 q 125 640 125 645 q 125 662 99 662 l 75 662 q 56 662 56 671 q 57 681 75 682 q 132 686 154 690 q 168 693 177 693 q 186 693 186 682 q 186 679 186 676 z m 125 187 l 116 111 q 114 95 114 79 q 114 20 174 20 q 234 20 286 91 q 339 163 339 244 q 339 294 317 323 q 295 352 256 352 q 205 352 170 308 q 135 264 125 187 z"},"%":{"x_min":0,"x_max":712,"ha":712,"o":"m 218 656 q 269 656 299 623 q 329 590 329 534 q 329 457 283 400 q 237 342 176 342 q 128 342 98 377 q 68 413 68 470 q 68 545 113 600 q 157 656 218 656 z m 218 636 q 176 636 147 585 q 118 534 118 461 q 118 416 134 390 q 151 364 179 364 q 219 364 249 417 q 278 471 278 543 q 278 636 218 636 z m 611 636 l 180 17 q 164 -7 146 -7 q 128 -7 129 2 q 129 5 134 12 l 570 642 q 583 660 601 660 q 618 660 618 651 q 618 647 611 636 z m 569 312 q 620 312 650 279 q 680 246 680 190 q 680 113 634 55 q 589 -2 528 -2 q 479 -2 449 33 q 419 68 419 125 q 419 201 464 256 q 509 312 569 312 z m 570 292 q 527 292 498 241 q 469 190 469 117 q 469 72 485 46 q 502 20 531 20 q 571 20 600 73 q 630 126 630 198 q 630 292 570 292 z"},"m":{"x_min":0,"x_max":675,"ha":675,"o":"m 154 297 q 188 345 229 371 q 270 397 311 397 q 372 397 372 316 l 372 297 q 403 343 441 370 q 479 397 513 397 q 547 397 568 368 q 588 339 588 290 q 588 272 587 254 l 575 98 l 573 78 l 575 68 q 579 57 591 57 q 615 57 639 95 q 645 104 651 104 q 660 104 660 92 q 660 75 631 41 q 592 -3 554 -3 q 516 -3 516 65 q 516 77 518 98 l 529 254 q 530 269 530 279 q 530 355 478 355 q 442 355 414 304 q 385 253 375 170 l 356 21 q 354 6 348 1 q 341 -3 323 -3 q 299 -3 299 12 l 300 21 l 326 238 q 329 257 329 283 q 329 316 313 336 q 297 356 270 356 q 232 356 201 307 q 169 258 161 187 l 141 21 q 139 6 132 1 q 125 -3 107 -3 q 83 -3 83 12 q 83 15 84 21 l 112 254 q 114 269 114 279 q 114 327 93 329 q 72 330 53 285 q 48 274 43 274 q 36 275 36 289 q 36 321 63 359 q 91 396 115 396 q 154 396 154 297 z"},"#":{"x_min":0,"x_max":600,"ha":600,"o":"m 414 215 l 379 44 l 376 33 q 370 0 342 0 q 319 0 319 20 q 319 26 323 44 l 359 215 l 207 215 l 172 44 l 169 33 q 163 0 136 0 q 114 0 114 20 q 114 25 116 33 l 118 44 l 154 215 l 70 215 q 43 215 43 235 q 43 248 53 256 q 64 264 81 264 l 162 264 l 194 415 l 111 415 q 84 415 84 435 q 84 447 94 455 q 105 463 122 463 l 203 463 l 235 622 l 238 634 q 245 667 272 667 q 294 667 294 646 q 294 642 292 634 l 290 622 l 257 463 l 410 463 l 442 622 l 444 634 q 451 667 479 667 q 501 667 501 646 q 501 642 500 634 l 497 622 l 463 463 l 544 463 q 571 463 571 444 q 571 431 561 423 q 550 415 534 415 l 456 415 l 424 264 l 504 264 q 531 264 531 244 q 531 231 521 223 q 510 215 494 215 z m 399 415 l 248 415 l 217 264 l 369 264 z"},",":{"x_min":0,"x_max":226,"ha":226,"o":"m 87 104 q 98 105 115 85 q 142 52 142 6 q 142 -56 89 -114 q 55 -152 38 -153 q 29 -153 30 -145 q 30 -138 48 -121 q 89 -82 89 -33 q 89 13 55 31 l 46 36 q 37 41 38 46 q 38 54 56 74 q 64 83 68 87 q 80 104 87 104 z"},"n":{"x_min":0,"x_max":469,"ha":469,"o":"m 156 300 q 189 345 231 371 q 272 397 311 397 q 341 397 361 366 q 381 334 381 287 q 381 260 378 217 l 368 90 q 367 85 367 81 q 367 56 381 56 q 406 56 428 88 q 438 103 446 103 q 455 103 454 93 q 453 67 413 31 q 373 -4 345 -4 q 310 -4 310 61 q 310 75 312 101 l 324 250 q 325 260 325 272 q 325 311 311 333 q 296 356 272 356 q 231 356 200 305 q 170 255 160 169 l 141 21 q 140 6 133 1 q 126 -3 107 -3 q 83 -3 83 12 l 84 21 l 100 147 q 104 177 107 206 q 114 256 114 282 q 114 330 92 330 q 84 330 73 318 q 61 306 56 291 q 49 273 42 273 q 32 273 32 287 q 32 320 61 358 q 90 396 116 396 q 134 396 145 375 q 156 354 156 320 z"},"h":{"x_min":0,"x_max":450,"ha":450,"o":"m 143 313 q 216 400 281 400 q 318 400 339 373 q 360 345 360 298 q 360 279 358 266 l 345 143 q 342 123 342 101 q 342 58 365 58 q 397 58 426 107 q 432 118 438 118 q 446 118 446 109 q 446 86 418 49 q 379 -3 331 -3 q 287 -3 287 89 q 287 106 288 131 l 297 266 q 298 284 298 293 q 298 350 254 350 q 210 350 173 315 q 140 283 131 217 l 107 21 l 106 16 q 104 -3 76 -3 q 50 -3 50 12 l 50 16 l 50 21 l 124 618 q 126 638 126 645 q 127 662 100 662 l 75 662 q 55 662 56 671 q 56 682 75 682 q 130 685 156 690 q 170 693 179 693 q 188 693 188 682 q 188 680 188 676 z"},"z":{"x_min":0,"x_max":356,"ha":356,"o":"m 129 93 q 174 62 194 42 q 213 22 239 -22 q 257 -52 265 -60 q 272 -67 284 -67 q 301 -67 312 -42 q 320 -19 334 -19 q 355 -19 355 -42 q 355 -60 328 -77 q 301 -94 274 -94 q 248 -94 228 -81 q 208 -67 174 -27 q 119 38 95 38 q 80 38 61 9 q 53 -3 43 -3 q 29 -3 29 11 q 30 20 46 36 q 60 51 75 69 l 249 281 q 198 291 152 320 q 120 340 103 340 q 91 340 83 330 q 75 320 75 306 q 75 289 90 275 q 96 269 96 264 q 96 255 88 255 q 76 254 63 276 q 50 297 50 318 q 50 351 71 374 q 91 397 120 397 q 140 397 191 372 q 258 338 285 338 q 303 338 309 360 l 313 376 q 318 394 332 394 q 351 394 350 375 q 349 362 325 332 z"},"B":{"x_min":0,"x_max":581,"ha":581,"o":"m 111 90 l 169 564 q 171 583 171 594 q 171 637 125 646 q 98 651 98 660 q 98 670 112 670 q 120 670 134 667 q 159 663 175 663 q 194 663 254 667 q 291 670 326 670 q 393 670 430 659 q 468 648 495 621 q 534 582 534 522 q 534 472 503 430 q 473 388 419 365 q 408 359 408 354 q 408 350 420 347 q 470 335 502 293 q 535 250 535 197 q 535 120 469 59 q 432 25 388 11 q 344 -3 276 -3 q 244 -3 218 -1 q 154 3 147 3 q 131 3 106 0 q 79 -3 65 -3 q 47 -3 47 6 q 47 14 64 19 q 103 28 108 64 z m 245 373 l 308 367 q 375 362 418 400 q 461 439 461 505 q 461 569 422 605 q 383 641 314 641 q 269 641 257 633 q 246 624 241 585 l 220 414 l 219 403 q 218 394 218 390 q 218 375 231 374 z m 306 343 l 245 348 l 236 348 q 211 348 209 328 l 208 310 l 182 95 l 178 62 q 178 41 200 32 q 222 23 275 23 q 358 23 408 70 q 458 116 458 193 q 458 260 419 299 q 379 337 306 343 z"},"K":{"x_min":0,"x_max":668,"ha":668,"o":"m 111 90 l 169 564 q 171 581 171 594 q 171 637 125 646 q 98 651 98 660 q 98 670 115 670 q 118 670 128 669 l 139 667 q 164 665 199 665 q 233 665 257 667 l 271 669 q 283 670 287 670 q 305 670 305 660 q 305 653 295 650 l 287 648 q 260 641 253 630 q 246 619 241 577 l 216 376 q 215 370 215 365 q 215 354 222 354 q 227 354 286 398 q 345 442 392 481 l 476 550 q 517 583 530 598 q 542 612 542 624 q 542 643 517 648 q 500 651 500 659 q 500 670 516 670 q 522 670 531 669 q 564 665 606 665 q 642 665 667 667 l 681 669 l 689 669 q 694 670 697 670 q 712 670 712 659 q 712 650 699 647 q 659 638 634 624 q 609 610 550 563 l 312 377 q 296 365 295 359 q 295 353 304 342 l 504 100 q 538 60 565 44 q 592 28 640 21 q 660 18 660 7 q 660 -3 648 -3 q 645 -3 637 -2 q 610 2 578 2 q 546 2 520 -2 q 512 -3 509 -3 q 494 -3 473 23 l 248 303 q 237 315 233 316 q 224 316 215 305 q 206 294 204 278 l 182 102 q 180 84 180 73 q 180 30 226 21 q 254 15 254 7 q 254 -3 237 -3 q 233 -3 224 -2 q 190 2 152 2 q 119 2 95 0 l 81 -2 q 69 -3 65 -3 q 47 -3 47 6 q 47 14 65 19 q 91 25 99 37 q 106 48 111 90 z"},"R":{"x_min":0,"x_max":580,"ha":580,"o":"m 211 307 l 186 102 q 184 84 184 73 q 184 30 229 21 q 257 15 257 7 q 257 -3 240 -3 q 237 -3 228 -2 q 194 2 157 2 q 121 2 98 0 l 84 -2 q 72 -3 69 -3 q 51 -3 51 6 q 51 14 68 19 q 95 25 102 37 q 109 48 115 90 l 172 564 q 175 583 175 594 q 175 637 129 646 q 101 651 101 660 q 101 670 116 670 q 122 670 144 666 q 160 663 175 663 q 186 663 269 668 q 298 670 334 670 q 436 670 477 635 q 522 596 522 530 q 522 481 493 433 q 463 385 421 367 l 390 354 q 376 347 375 336 q 375 334 378 328 q 381 321 387 302 q 399 263 416 221 l 452 135 q 479 70 502 43 q 524 16 550 18 l 564 19 l 567 18 q 571 17 571 14 q 572 6 551 0 q 531 -7 505 -7 q 430 -7 401 72 l 317 307 q 310 326 305 330 q 299 334 280 334 q 236 334 225 332 q 215 329 212 315 z m 245 586 l 224 412 q 222 395 222 390 q 222 373 239 369 q 255 364 317 364 q 378 364 413 405 q 448 445 448 516 q 448 574 413 608 q 378 642 317 642 q 277 642 263 631 q 249 621 245 586 z"},"T":{"x_min":0,"x_max":575,"ha":575,"o":"m 380 592 l 320 102 q 318 86 318 73 q 318 29 368 21 q 398 15 398 7 q 398 -3 377 -3 q 371 -3 361 -2 q 328 2 290 2 q 257 2 233 0 l 219 -2 q 207 -3 203 -3 q 179 -3 179 6 q 179 14 198 19 q 227 26 236 38 q 244 49 249 90 l 311 592 l 311 599 q 311 615 290 615 l 184 615 q 97 615 78 556 q 69 528 59 528 q 44 528 44 548 q 44 564 60 603 q 67 620 72 642 q 76 659 82 664 q 89 670 104 670 q 115 670 149 667 q 216 663 353 663 q 499 663 556 668 q 583 670 592 670 q 608 670 613 663 q 618 657 618 638 l 618 596 l 619 547 q 619 523 607 523 q 594 523 593 548 q 590 584 576 600 q 561 615 528 615 l 394 615 q 383 615 380 592 z"},"P":{"x_min":0,"x_max":500,"ha":500,"o":"m 238 560 l 182 102 q 180 84 180 73 q 180 29 232 21 q 264 15 264 7 q 264 -3 239 -3 q 232 -3 223 -2 q 190 2 151 2 q 120 2 96 0 l 81 -2 q 69 -3 65 -3 q 47 -3 47 6 q 47 14 64 19 q 103 28 108 64 l 111 90 l 169 564 q 171 583 171 594 q 171 637 125 646 q 98 651 98 660 q 98 670 113 670 q 125 670 151 667 q 175 663 207 663 q 243 663 290 667 q 331 670 351 670 q 425 670 470 626 q 516 583 516 512 q 516 448 478 394 q 440 339 381 319 q 350 308 301 308 q 281 308 274 309 l 256 311 q 231 314 231 323 q 232 329 244 329 l 251 329 l 290 328 q 350 328 395 379 q 440 431 440 500 q 440 558 397 599 q 354 640 291 640 q 263 640 254 626 q 245 613 238 560 z"},"|":{"x_min":0,"x_max":500,"ha":500,"o":"m 229 667 l 271 667 l 271 -167 l 229 -167 z"},"t":{"x_min":0,"x_max":280,"ha":280,"o":"m 159 335 l 134 138 q 133 125 133 109 q 133 85 145 70 q 156 54 174 54 q 205 54 239 90 q 248 100 254 100 q 262 100 262 92 q 262 65 217 31 q 171 -3 136 -3 q 108 -3 91 22 q 74 48 74 90 q 74 109 78 138 l 101 325 q 102 336 104 343 q 104 347 104 349 q 104 360 87 360 l 60 360 q 49 360 49 368 q 49 378 69 389 q 123 417 154 468 q 162 480 170 480 q 181 480 181 471 q 181 466 178 458 q 177 454 173 439 l 170 423 l 167 410 q 166 406 166 403 q 166 392 186 392 l 190 392 l 257 394 q 273 394 273 381 q 273 360 249 360 l 190 362 l 184 362 q 170 362 165 357 q 161 353 159 335 z"},"M":{"x_min":0,"x_max":847,"ha":847,"o":"m 736 531 l 729 102 q 729 59 740 43 q 750 27 782 21 q 811 15 811 6 q 811 -3 795 -3 q 792 -3 782 -2 q 749 2 710 2 q 676 2 652 0 l 637 -2 l 629 -3 q 625 -3 622 -3 q 603 -3 603 7 q 603 14 619 19 q 657 28 657 64 l 658 90 l 663 458 q 663 473 657 473 q 650 472 632 436 l 429 17 l 426 10 q 422 3 415 3 q 406 4 397 24 l 212 449 q 207 460 204 460 q 200 461 197 443 l 140 111 q 136 84 136 72 q 136 30 186 25 q 219 21 219 10 q 219 -3 198 -3 q 193 -3 185 -2 q 157 2 121 2 q 88 2 56 -2 q 45 -3 40 -3 q 21 -3 21 7 q 21 18 47 24 q 73 30 81 41 q 88 52 98 96 l 109 146 l 140 312 q 165 444 165 513 q 165 567 143 605 q 121 643 90 643 q 86 643 81 642 q 64 640 58 640 q 47 640 47 648 q 49 670 93 670 q 180 670 191 665 q 202 660 209 641 l 284 469 q 298 435 324 373 q 352 305 365 274 l 424 137 l 433 122 q 436 122 448 146 l 605 469 q 638 534 648 557 l 680 626 l 693 654 q 698 666 715 666 q 740 666 744 666 l 790 668 l 802 666 q 807 663 807 659 q 807 652 776 643 q 754 636 745 610 q 736 585 736 531 z"},"g":{"x_min":0,"x_max":353,"ha":353,"o":"m 279 365 q 305 315 305 274 q 305 209 266 163 q 228 117 173 117 q 153 117 129 125 q 123 127 120 127 q 98 127 98 99 q 98 63 159 44 l 236 19 q 329 -10 329 -76 q 329 -119 288 -145 q 248 -170 181 -170 q 99 -170 48 -139 q -2 -108 -2 -57 q -2 -21 21 3 q 43 27 84 32 q 69 53 69 81 q 69 109 94 131 q 98 134 98 137 l 95 144 q 59 186 59 249 q 59 310 97 355 q 136 400 188 400 q 205 400 238 392 q 268 384 283 384 q 306 384 323 392 l 345 400 q 353 403 359 403 q 366 403 372 397 q 377 390 378 382 q 378 370 367 361 q 356 352 340 352 q 318 352 279 365 z m 188 382 q 154 382 133 342 q 111 302 111 240 q 111 193 128 165 q 146 138 174 138 q 209 138 231 177 q 254 217 254 278 q 254 324 235 353 q 217 382 188 382 z m 95 19 q 69 13 55 -4 q 41 -22 41 -47 q 41 -92 77 -121 q 113 -149 170 -149 q 219 -149 248 -134 q 277 -119 277 -93 q 277 -56 209 -32 l 146 -8 q 116 3 95 19 z"},"j":{"x_min":0,"x_max":229,"ha":229,"o":"m 71 -53 l 117 321 q 119 341 120 348 q 121 365 93 365 l 69 365 q 49 365 50 375 q 51 385 69 386 q 127 389 149 394 q 164 397 172 397 q 181 397 181 386 q 181 383 181 380 l 132 -12 q 123 -91 84 -131 q 46 -170 6 -170 q -11 -170 -17 -165 q -22 -160 -24 -143 l -26 -123 q -26 -116 -26 -110 q -26 -97 -18 -97 q -9 -97 1 -110 q 21 -136 35 -136 q 61 -136 71 -53 z m 169 597 q 174 596 178 588 q 186 573 188 570 l 198 554 q 203 548 203 544 q 203 540 195 533 q 184 521 169 503 q 164 496 159 496 q 153 496 148 505 q 138 527 130 537 q 126 543 126 547 q 126 553 131 558 l 145 572 q 147 575 157 588 q 165 597 169 597 z"},"i":{"x_min":0,"x_max":245,"ha":245,"o":"m 86 200 l 107 321 q 109 334 109 345 q 109 365 81 365 l 54 365 q 33 365 33 375 q 34 386 54 386 q 99 386 141 394 q 157 397 166 397 q 176 397 176 385 l 176 380 l 148 245 q 128 145 128 93 q 128 63 143 62 q 165 61 187 103 q 192 114 198 114 q 206 114 206 104 q 204 72 168 34 q 132 -3 104 -3 q 90 -3 81 18 q 71 40 71 74 q 71 113 86 200 z m 170 597 q 174 596 178 588 q 186 573 188 570 l 199 554 q 203 548 203 544 q 203 540 196 533 q 185 522 170 503 q 164 496 159 496 q 153 496 149 505 q 139 527 131 537 q 126 543 126 547 q 126 553 131 558 l 145 572 q 147 575 158 588 q 165 597 170 597 z"},"y":{"x_min":0,"x_max":354,"ha":354,"o":"m 246 125 q 276 219 276 289 q 276 312 265 335 q 255 355 255 367 q 255 397 280 397 q 296 397 306 380 q 316 364 316 337 q 316 297 296 206 q 276 115 254 54 q 212 -61 167 -115 q 122 -170 67 -170 q 43 -170 25 -156 q 6 -141 6 -122 q 6 -92 31 -92 q 44 -92 62 -105 q 83 -120 97 -120 q 134 -120 178 -50 q 211 3 211 34 q 211 52 194 104 q 177 155 154 203 q 98 327 62 327 q 29 327 20 283 l 17 267 q 15 259 8 259 q -1 259 -1 280 q -1 327 20 360 q 41 394 70 394 q 101 394 139 342 q 177 291 215 199 z"},"@":{"x_min":0,"x_max":749,"ha":749,"o":"m 457 238 q 369 143 288 143 q 259 143 242 162 q 225 181 225 214 q 225 293 298 392 q 385 507 477 507 q 498 507 525 499 q 535 496 542 496 q 550 496 565 510 l 575 519 q 583 527 589 527 q 595 527 595 520 q 594 515 592 508 l 584 489 l 571 450 q 549 390 531 318 q 513 245 513 219 q 513 179 540 179 q 568 179 604 212 q 644 247 667 305 q 691 363 691 423 q 691 525 627 586 q 563 647 456 647 q 318 647 217 536 q 116 425 116 273 q 116 155 186 87 q 256 20 379 20 q 492 20 596 64 l 605 33 q 497 -13 375 -13 q 226 -13 137 68 q 47 149 47 284 q 47 359 80 432 q 113 506 171 562 q 229 617 306 648 q 382 679 459 679 q 585 679 664 609 q 742 539 742 425 q 742 351 705 285 q 668 218 604 176 q 552 143 509 143 q 454 143 454 206 q 454 219 457 238 z m 473 485 q 429 485 379 433 q 344 395 316 335 q 288 275 288 237 q 288 189 334 189 q 373 189 416 228 q 460 267 472 311 q 477 329 480 339 l 493 379 q 508 424 514 437 q 520 451 520 459 q 520 469 506 477 q 492 485 473 485 z"},".":{"x_min":0,"x_max":226,"ha":226,"o":"m 100 104 q 106 104 114 95 l 127 79 q 133 72 144 63 q 152 56 151 51 q 151 46 142 40 q 114 18 102 2 q 95 -7 89 -7 q 83 -7 77 3 q 66 21 50 35 q 41 43 41 49 q 41 57 53 65 q 65 74 71 79 l 86 95 q 94 103 100 104 z"},"p":{"x_min":0,"x_max":437,"ha":437,"o":"m 174 390 q 220 397 247 397 q 322 397 366 362 q 410 326 410 265 q 410 210 384 153 q 357 96 314 59 q 251 3 176 3 q 160 3 152 4 q 142 6 138 6 q 127 6 125 -6 l 124 -18 l 115 -91 q 114 -97 114 -108 q 114 -127 123 -134 q 131 -141 161 -145 l 176 -147 q 191 -149 191 -157 q 191 -170 172 -170 q 160 -170 149 -169 l 141 -167 q 125 -165 96 -165 q 67 -165 51 -167 l 40 -169 q 31 -170 26 -170 q 6 -170 6 -156 q 6 -148 19 -145 q 42 -140 48 -131 q 54 -122 59 -85 l 112 352 q 92 346 79 341 l 65 335 l 59 333 q 55 331 52 331 q 47 331 46 336 l 47 340 l 49 347 q 51 353 63 356 q 66 357 84 365 q 92 368 104 372 l 115 376 l 118 396 q 126 469 140 494 q 154 519 187 519 q 197 519 197 510 q 197 504 191 487 q 182 459 179 433 z m 170 364 l 134 70 q 133 62 133 53 q 133 28 175 28 q 245 28 294 93 q 343 158 343 249 q 343 306 309 337 q 275 368 212 368 q 195 368 170 364 z"},"X":{"x_min":0,"x_max":669,"ha":669,"o":"m 390 366 l 450 216 q 502 87 537 54 q 566 25 612 25 q 632 25 646 36 q 657 44 661 44 q 671 44 671 34 q 670 17 642 7 q 614 -3 567 -3 q 501 -3 476 21 q 450 46 406 153 l 380 216 l 344 304 l 234 150 q 184 80 184 59 q 184 42 198 31 q 212 20 234 17 q 257 15 257 6 q 257 -3 244 -3 q 237 -3 227 -2 q 191 2 149 2 q 110 2 70 -2 q 57 -3 53 -3 q 39 -3 38 5 q 38 12 50 16 q 110 36 187 141 l 331 339 l 268 489 q 238 561 209 593 q 180 625 145 625 q 113 625 93 604 q 73 583 73 548 q 73 520 81 506 q 88 492 105 490 q 120 488 119 476 q 118 458 101 458 q 78 458 62 488 q 46 517 46 557 q 46 608 78 641 q 110 673 160 673 q 219 673 258 634 q 297 595 337 495 l 375 402 l 487 553 q 519 597 519 618 q 519 645 482 648 q 463 650 463 661 q 463 670 475 670 q 481 670 490 669 q 521 665 559 665 q 593 665 615 667 l 629 669 l 637 669 q 642 670 644 670 q 659 670 658 660 q 657 653 640 649 q 607 642 576 608 q 544 575 454 452 z"},"*":{"x_min":0,"x_max":500,"ha":500,"o":"m 285 491 l 236 429 l 226 416 q 221 411 216 411 q 208 411 193 426 q 179 440 179 449 q 179 458 188 464 l 256 510 q 267 518 267 521 q 267 527 252 532 l 179 552 q 153 560 153 572 q 153 584 164 601 q 175 619 183 619 q 188 620 201 610 l 268 556 l 276 551 q 282 551 281 562 l 276 646 l 275 659 q 275 673 297 673 q 340 673 339 656 q 339 651 335 639 l 310 558 l 308 553 q 309 547 315 548 q 318 548 321 549 l 399 585 q 412 591 416 590 q 426 589 432 573 l 435 558 q 438 549 438 544 q 438 524 407 524 l 331 522 q 314 522 313 515 q 313 512 322 502 l 376 441 q 382 434 382 428 q 382 419 367 408 q 351 396 340 396 q 330 396 321 418 l 296 489 q 293 497 291 497 z"},"Y":{"x_min":0,"x_max":562,"ha":562,"o":"m 334 261 l 315 102 q 313 85 313 73 q 313 29 359 21 q 387 15 387 7 q 387 -3 372 -3 q 366 -3 357 -2 q 325 2 287 2 q 253 2 229 0 l 216 -2 q 204 -3 201 -3 q 183 -3 183 6 q 183 14 200 19 q 227 25 234 37 q 241 48 247 90 l 269 271 q 271 288 271 291 q 270 303 261 321 l 253 338 l 139 575 q 118 618 102 633 q 86 648 60 649 q 38 650 38 660 q 38 670 53 670 q 59 670 69 669 q 104 665 145 665 q 182 665 208 667 l 223 669 q 235 670 239 670 q 256 670 256 660 q 256 651 237 649 q 207 646 207 621 q 207 600 223 565 l 315 364 l 320 354 q 323 348 326 348 q 330 347 336 356 l 360 388 q 367 397 414 470 l 464 549 q 494 595 494 615 q 494 646 451 646 q 429 646 429 659 q 429 670 445 670 q 450 670 458 669 q 487 665 522 665 q 554 665 575 667 l 587 669 q 599 670 601 670 q 614 670 614 660 q 614 651 597 647 q 573 642 559 627 q 545 612 504 547 q 487 521 461 483 q 423 427 414 413 q 380 361 369 346 q 350 322 344 308 q 338 293 334 261 z"},"c":{"x_min":0,"x_max":346,"ha":346,"o":"m 286 317 l 257 347 q 234 371 208 371 q 157 371 123 316 q 88 261 88 180 q 88 114 117 78 q 146 42 198 42 q 250 42 288 76 l 306 92 q 310 96 314 96 q 320 96 320 90 q 320 78 298 54 q 243 -7 158 -7 q 97 -7 63 32 q 30 72 30 143 q 30 243 92 322 q 155 400 234 400 q 274 400 304 383 q 333 365 333 342 q 333 329 325 318 q 316 308 304 308 q 294 308 286 317 z"},"!":{"x_min":0,"x_max":229,"ha":229,"o":"m 106 208 l 125 601 q 126 640 163 640 q 196 640 196 617 q 196 608 194 599 l 127 206 q 124 191 116 191 q 105 191 106 208 z m 108 104 q 115 104 122 95 l 136 79 q 142 72 152 63 q 160 56 160 51 q 159 46 150 40 q 122 18 110 2 q 103 -7 97 -7 q 91 -7 85 3 q 74 21 58 35 q 49 43 49 49 q 49 57 61 65 q 74 74 79 79 l 94 95 q 102 103 108 104 z"},"/":{"x_min":0,"x_max":494,"ha":494,"o":"m 520 666 l -24 -115 q -36 -132 -51 -132 q -72 -132 -71 -125 q -71 -120 -66 -114 q -62 -108 -39 -75 l 499 697 q 506 708 516 708 q 542 708 542 700 q 542 696 538 691 l 532 683 z"},"[":{"x_min":0,"x_max":250,"ha":250,"o":"m 33 -88 l 125 667 q 128 688 142 688 l 153 688 l 278 693 q 296 693 296 679 q 296 660 274 660 l 215 660 q 185 660 181 626 l 99 -47 q 98 -53 98 -57 q 97 -81 125 -81 l 184 -81 q 203 -81 202 -96 q 201 -114 179 -114 l 55 -109 l 44 -109 q 32 -109 32 -99 q 32 -95 33 -88 z"},"6":{"x_min":0,"x_max":500,"ha":500,"o":"m 173 383 q 243 430 304 430 q 372 430 414 379 q 457 328 457 247 q 457 142 391 68 q 326 -7 233 -7 q 155 -7 106 54 q 57 114 57 212 q 57 348 154 483 q 250 618 383 667 l 411 677 q 431 684 444 684 q 461 684 461 668 q 460 656 438 649 q 345 620 285 560 q 225 500 173 383 z m 265 380 q 209 380 174 333 q 138 286 138 213 q 138 134 171 84 q 204 34 256 34 q 310 34 346 85 q 381 136 381 214 q 381 287 349 334 q 316 380 265 380 z"},"r":{"x_min":0,"x_max":292,"ha":292,"o":"m 154 297 q 208 397 267 397 q 301 397 301 374 q 301 368 298 358 q 295 348 294 345 l 289 321 q 285 305 274 305 q 268 304 264 315 q 252 343 229 343 q 206 343 189 293 q 173 244 160 135 l 146 21 l 145 16 q 143 -3 114 -3 q 88 -3 88 12 q 88 16 89 21 l 113 212 q 115 228 115 251 q 115 323 82 323 q 67 323 55 307 q 42 291 39 268 q 37 249 27 249 q 16 249 16 272 q 16 322 41 354 q 53 370 70 382 q 87 394 97 394 q 129 394 154 297 z"},"2":{"x_min":0,"x_max":500,"ha":500,"o":"m 272 249 l 163 105 q 152 91 151 84 q 150 69 182 69 l 206 68 l 258 68 l 323 73 q 358 80 389 114 q 403 129 413 129 q 428 129 427 118 q 427 113 417 100 l 356 12 l 349 0 q 345 -3 337 -3 q 330 -3 313 -1 q 281 3 210 3 q 110 3 82 -1 q 67 -3 61 -3 q 42 -3 42 9 q 42 17 61 39 l 150 146 q 173 175 217 242 q 261 310 280 346 q 333 448 333 520 q 333 602 257 602 q 200 602 163 570 l 130 543 q 125 539 118 538 q 104 537 104 550 q 104 570 155 612 q 213 660 282 660 q 341 660 379 627 q 417 594 417 544 q 417 439 272 249 z"},"{":{"x_min":0,"x_max":257,"ha":257,"o":"m 50 23 l 67 159 q 71 191 71 202 q 71 246 30 279 q 22 285 22 289 q 22 294 32 301 q 65 323 79 348 q 93 374 99 421 l 116 557 q 124 624 155 658 q 186 693 236 693 l 267 693 q 296 693 296 684 q 296 674 277 671 q 225 664 203 637 q 182 610 174 542 l 158 409 q 148 336 106 306 l 95 299 q 87 293 87 290 q 86 287 93 281 l 102 274 q 130 250 130 195 q 130 184 128 171 l 112 39 q 109 13 109 -12 q 109 -83 187 -93 q 201 -95 200 -103 q 199 -113 168 -113 l 137 -113 q 97 -113 72 -88 q 48 -62 48 -20 q 48 4 50 23 z"},"9":{"x_min":0,"x_max":500,"ha":500,"o":"m 360 271 q 292 224 230 224 q 163 224 120 275 q 77 326 77 407 q 77 511 143 585 q 208 660 301 660 q 379 660 428 599 q 477 539 477 441 q 477 306 380 170 q 283 34 152 -13 l 123 -23 q 103 -31 91 -31 q 73 -31 73 -15 q 73 -3 96 4 q 190 35 250 94 q 309 154 360 271 z m 278 619 q 224 619 188 568 q 153 517 153 439 q 153 366 186 320 q 218 273 270 273 q 325 273 361 320 q 396 367 396 440 q 396 519 363 569 q 330 619 278 619 z"}," ":{"x_min":0,"x_max":250,"ha":250,"o":""},"I":{"x_min":0,"x_max":317,"ha":317,"o":"m 111 90 l 169 564 q 171 579 171 594 q 171 637 125 646 q 98 651 98 660 q 98 670 114 670 q 118 670 127 669 l 139 667 q 163 665 199 665 q 233 665 256 667 l 271 669 q 283 670 286 670 q 304 670 304 660 q 304 653 294 650 l 287 648 q 260 641 253 630 q 246 619 241 577 l 182 102 q 180 84 180 73 q 180 30 226 21 q 254 15 254 7 q 254 -3 239 -3 q 233 -3 224 -2 q 191 2 152 2 q 118 2 95 0 l 81 -2 q 69 -3 65 -3 q 47 -3 47 6 q 47 14 64 19 q 103 28 108 64 z"},"H":{"x_min":0,"x_max":741,"ha":741,"o":"m 233 366 l 544 366 q 561 366 566 369 q 570 373 572 387 l 594 564 q 596 582 596 594 q 596 637 550 646 q 522 651 522 660 q 522 670 537 670 q 543 670 552 669 q 584 665 623 665 q 658 665 681 667 l 696 669 q 708 670 711 670 q 729 670 729 660 q 729 653 719 650 l 711 648 q 685 641 677 630 q 670 619 665 577 l 607 102 q 604 83 604 73 q 604 29 650 21 q 678 15 678 7 q 678 -3 661 -3 q 658 -3 648 -2 q 615 2 577 2 q 542 2 519 0 l 505 -2 q 493 -3 490 -3 q 472 -3 472 6 q 472 14 489 19 q 516 25 523 37 q 530 48 536 90 l 560 292 q 561 299 561 306 q 561 324 540 324 l 220 324 q 209 324 208 308 l 182 102 q 180 84 180 73 q 180 30 226 21 q 254 15 254 7 q 254 -3 237 -3 q 233 -3 224 -2 q 189 2 152 2 q 119 2 95 0 l 81 -2 q 69 -3 65 -3 q 47 -3 47 6 q 47 14 64 19 q 103 28 108 64 l 111 90 l 169 564 q 171 580 171 594 q 171 637 125 646 q 98 651 98 660 q 98 670 114 670 q 118 670 128 669 q 161 665 200 665 q 232 665 256 667 l 271 669 q 283 670 286 670 q 304 670 304 660 q 304 653 294 650 l 287 648 q 260 641 253 630 q 246 619 241 577 l 218 393 q 217 384 217 381 q 217 366 233 366 z"},"4":{"x_min":0,"x_max":500,"ha":500,"o":"m 292 204 l 69 204 q 42 204 42 219 q 43 235 82 283 q 85 288 133 350 q 198 435 249 495 l 347 611 l 383 653 q 396 667 407 667 q 420 667 420 655 q 420 651 418 645 q 407 588 403 552 l 367 264 l 383 264 q 409 264 432 285 q 448 300 457 300 q 468 300 469 290 q 469 287 468 284 l 442 217 q 437 204 423 204 l 360 204 l 332 -31 q 329 -52 308 -57 q 293 -60 286 -62 q 277 -65 271 -65 q 253 -65 253 -47 q 253 -43 255 -37 q 268 3 272 41 z m 299 264 l 333 533 q 241 442 116 264 z"},"~":{"x_min":0,"x_max":667,"ha":667,"o":"m 535 733 l 547 726 q 522 684 485 659 q 447 633 411 633 q 389 633 345 648 q 260 676 228 676 q 200 676 181 664 q 163 652 132 615 l 120 624 q 181 716 258 716 q 288 716 353 694 q 406 676 431 676 q 489 676 535 733 z"},"D":{"x_min":0,"x_max":689,"ha":689,"o":"m 111 90 l 169 564 q 171 583 171 594 q 171 637 125 646 q 98 651 98 660 q 98 670 113 670 q 124 670 151 666 q 172 663 189 663 q 208 663 263 667 q 317 670 368 670 q 519 670 598 593 q 673 521 673 407 q 673 304 625 210 q 577 117 493 59 q 444 25 388 11 q 332 -3 249 -3 q 208 -3 167 0 q 136 3 126 3 q 113 3 95 0 q 73 -3 65 -3 q 47 -3 47 6 q 47 14 64 19 q 103 28 108 64 z m 240 575 l 181 87 q 178 68 178 60 q 178 38 191 31 q 204 25 246 25 q 325 25 373 39 q 422 53 464 89 q 521 136 559 227 q 596 317 596 407 q 596 529 506 595 q 445 640 337 640 q 277 640 261 629 q 246 619 240 575 z"},"^":{"x_min":0,"x_max":500,"ha":500,"o":"m 523 288 l 492 288 l 278 615 l 61 288 l -23 288 l 251 700 l 257 700 z"},"0":{"x_min":0,"x_max":500,"ha":500,"o":"m 300 660 q 382 660 429 591 q 477 523 477 404 q 477 329 453 241 q 429 154 393 98 q 326 -7 233 -7 q 153 -7 106 70 q 60 146 60 276 q 60 421 126 542 q 190 660 300 660 z m 269 614 q 206 614 162 527 q 118 441 118 317 q 118 207 160 131 q 203 55 264 55 q 327 55 368 132 q 409 208 409 327 q 409 453 370 533 q 330 614 269 614 z"},"F":{"x_min":0,"x_max":505,"ha":505,"o":"m 235 361 l 359 361 q 399 361 416 371 q 433 380 440 407 q 444 420 451 421 q 459 421 459 411 l 448 319 l 443 241 q 442 228 433 228 q 423 228 423 249 q 423 288 410 303 q 396 318 362 318 l 241 318 q 220 318 214 313 q 208 307 205 287 l 182 102 q 180 84 180 73 q 180 30 226 21 q 254 15 254 7 q 254 -3 237 -3 q 234 -3 224 -2 q 191 2 153 2 q 118 2 94 0 l 80 -2 q 69 -3 65 -3 q 47 -3 47 6 q 47 14 64 19 q 103 28 108 64 l 111 90 l 169 564 q 171 583 171 594 q 171 637 125 646 q 98 651 98 660 q 98 670 113 670 q 125 670 147 668 q 192 663 307 663 q 434 663 477 667 q 499 670 506 670 q 522 670 522 652 l 521 595 l 527 533 q 527 518 517 518 q 508 518 507 538 q 502 587 470 609 q 438 630 369 630 l 310 632 l 286 633 q 263 633 254 625 q 245 616 242 590 l 218 389 l 216 375 l 217 368 q 221 361 235 361 z"},"`":{"x_min":0,"x_max":450,"ha":450,"o":"m 214 563 l 265 481 q 271 470 271 465 q 271 456 264 456 q 257 456 244 463 l 176 508 q 147 526 147 547 q 147 562 157 573 q 167 584 182 584 q 200 584 214 563 z"},"k":{"x_min":0,"x_max":421,"ha":421,"o":"m 122 144 l 106 21 l 106 16 q 104 -3 75 -3 q 49 -3 49 12 q 49 18 50 21 l 123 618 q 125 638 125 646 q 125 662 99 662 l 75 662 q 55 662 56 671 q 56 682 75 682 q 131 685 155 690 q 169 693 178 693 q 186 693 187 682 l 187 676 l 131 218 q 130 214 130 211 l 129 207 q 129 200 134 200 q 137 199 145 206 l 151 210 l 181 232 q 263 292 285 353 q 295 381 304 391 q 312 400 329 400 q 356 400 356 370 q 356 325 248 249 q 225 233 225 229 q 225 226 229 220 q 242 205 254 183 l 309 86 q 321 64 333 64 q 343 64 357 77 q 372 89 380 105 q 390 125 397 124 q 405 124 405 114 q 405 81 374 39 q 344 -3 320 -3 q 297 -3 279 29 l 192 183 q 185 197 178 197 q 173 197 166 192 l 147 182 q 125 170 122 144 z"},"u":{"x_min":0,"x_max":473,"ha":473,"o":"m 312 200 q 250 104 215 67 q 188 40 156 20 q 123 -1 104 -1 q 89 -1 79 15 q 69 32 69 58 q 69 97 81 158 l 101 259 q 108 296 108 312 q 108 331 98 331 q 88 332 75 318 q 62 304 54 284 q 47 268 39 268 q 29 268 29 279 q 29 318 63 358 q 96 398 129 398 q 168 398 168 336 q 168 321 165 303 l 137 135 q 136 126 134 110 l 131 89 q 130 81 130 75 q 130 54 145 54 q 161 54 194 87 q 227 120 261 170 q 323 260 351 365 q 355 383 361 388 q 366 394 379 394 q 405 394 405 374 q 405 368 404 361 l 379 248 q 355 138 355 83 q 355 60 375 60 q 404 60 433 114 q 439 126 446 126 q 456 126 456 115 q 456 80 411 38 q 367 -3 328 -3 q 294 -3 294 48 q 294 86 303 140 l 308 168 q 310 176 312 200 z"},"]":{"x_min":0,"x_max":250,"ha":250,"o":"m 242 667 l 149 -88 q 147 -109 132 -109 l 122 -109 l -3 -114 q -22 -114 -22 -100 q -22 -81 0 -81 l 59 -81 q 90 -81 94 -47 l 176 626 q 177 631 177 636 q 177 660 149 660 l 90 660 q 72 660 73 675 q 74 693 96 693 l 219 688 l 230 688 q 242 688 242 678 q 242 671 242 667 z"},"U":{"x_min":0,"x_max":722,"ha":722,"o":"m 633 489 l 642 564 q 644 582 644 594 q 644 637 598 646 q 570 651 570 660 q 570 670 585 670 q 590 670 598 669 q 625 665 658 665 q 687 665 706 667 l 718 669 q 729 670 731 670 q 749 670 749 661 q 749 653 731 648 q 705 642 697 630 q 688 618 683 577 l 640 293 q 616 132 543 61 q 470 -10 327 -10 q 214 -10 154 42 q 104 87 104 188 q 104 214 106 246 l 136 577 q 138 600 138 610 q 138 639 104 648 l 97 650 q 89 652 89 658 q 89 670 110 670 q 115 670 122 669 q 148 665 181 665 q 210 665 229 667 l 241 669 q 250 670 253 670 q 271 670 271 660 q 271 653 261 650 l 253 648 q 227 641 220 629 q 212 618 208 577 l 193 460 q 186 398 184 372 l 176 274 q 173 225 173 194 q 173 113 218 68 q 262 24 343 24 q 443 24 510 80 q 548 112 567 153 q 585 194 601 283 l 618 381 q 623 413 633 489 z"},"o":{"x_min":0,"x_max":399,"ha":399,"o":"m 227 400 q 292 400 331 357 q 369 314 369 241 q 369 138 312 66 q 254 -7 172 -7 q 110 -7 71 39 q 32 85 32 159 q 32 213 55 268 q 78 324 113 356 q 161 400 227 400 z m 229 376 q 173 376 135 313 q 98 250 98 157 q 98 21 181 21 q 231 21 268 88 q 304 155 304 249 q 304 376 229 376 z"},"N":{"x_min":0,"x_max":711,"ha":711,"o":"m 117 153 l 162 461 q 167 500 167 537 q 167 579 141 610 q 114 641 78 641 q 70 641 64 639 q 58 638 54 638 q 43 639 43 647 q 43 654 58 661 q 74 668 91 668 l 136 666 l 169 666 q 188 666 199 651 l 311 494 q 367 414 429 316 l 537 144 l 543 135 q 549 127 551 127 q 559 127 562 159 q 563 165 566 181 q 583 271 600 407 q 617 542 617 587 q 617 640 567 646 q 541 650 541 661 q 540 670 559 670 q 564 670 571 669 q 598 665 632 665 q 662 665 681 667 l 693 669 q 704 670 708 670 q 726 670 726 658 q 726 651 708 648 q 677 644 668 622 q 658 600 649 510 q 624 270 585 67 q 576 14 573 5 q 569 -3 559 -3 q 551 -3 544 8 l 432 185 l 372 276 q 314 366 302 383 l 229 488 q 224 495 221 499 q 215 509 212 508 q 206 507 203 487 l 158 119 q 154 86 154 74 q 154 28 204 22 q 228 19 228 9 q 228 -3 206 -3 q 200 -3 192 -2 q 163 2 126 2 q 94 2 72 0 l 59 -2 q 48 -3 45 -3 q 33 -3 33 5 q 33 15 54 21 q 81 30 92 46 q 103 62 109 103 z"},"+":{"x_min":0,"x_max":500,"ha":500,"o":"m 290 302 l 291 258 l 292 223 l 293 172 l 294 158 q 294 142 284 139 l 266 134 l 249 126 l 244 128 q 239 133 239 147 l 240 170 l 241 228 l 241 260 l 241 302 l 199 302 l 145 303 q 127 303 108 302 q 92 300 86 300 q 67 300 67 310 q 67 314 73 331 l 78 345 q 82 355 97 355 q 101 355 111 355 q 146 354 162 354 l 196 353 l 240 351 l 240 375 q 240 404 237 469 q 237 480 237 485 q 237 499 250 513 q 262 527 274 527 q 289 527 289 509 l 290 445 l 290 406 l 289 350 l 345 351 l 376 351 q 437 351 451 349 q 465 347 465 340 q 465 322 455 310 q 445 298 428 298 l 408 299 l 329 302 z"},"G":{"x_min":0,"x_max":710,"ha":710,"o":"m 372 646 q 245 646 185 555 q 161 520 145 459 q 129 399 129 346 q 129 210 197 118 q 269 20 397 20 q 518 20 544 116 q 560 173 560 251 q 560 285 550 297 q 541 309 512 312 l 493 314 q 478 316 478 325 q 479 336 498 336 l 593 335 l 668 341 q 681 341 681 332 q 681 323 660 317 q 645 313 639 304 q 634 295 630 267 l 620 177 q 615 132 615 97 q 615 80 617 68 q 619 61 619 58 q 619 48 606 46 q 581 41 550 28 q 456 -10 382 -10 q 278 -10 195 40 q 57 123 57 323 q 57 479 151 578 q 245 677 392 677 q 438 677 495 660 q 553 644 593 620 q 604 614 609 614 q 615 614 622 620 l 627 627 q 630 629 635 629 q 646 629 646 614 l 646 562 l 651 484 q 653 459 641 459 q 633 459 629 475 q 610 550 538 598 q 465 646 372 646 z"},"q":{"x_min":0,"x_max":437,"ha":437,"o":"m 300 121 q 257 56 215 27 q 172 -1 121 -1 q 78 -1 51 28 q 25 58 25 107 q 25 208 106 305 q 187 401 272 401 q 306 401 327 390 q 335 386 340 386 q 349 385 357 402 l 379 444 q 387 459 394 459 q 403 459 403 450 q 403 444 399 436 q 394 419 390 387 l 386 354 l 381 319 l 330 -96 q 329 -108 329 -114 q 329 -132 335 -138 q 342 -145 363 -146 l 377 -148 q 394 -149 394 -159 q 394 -170 380 -170 q 377 -170 367 -169 q 335 -165 298 -165 q 265 -165 242 -167 l 228 -169 l 221 -169 q 216 -170 213 -170 q 202 -170 202 -160 q 202 -152 229 -145 q 252 -139 262 -127 q 271 -116 274 -90 z m 315 247 l 321 290 l 323 314 q 324 326 324 330 q 324 349 305 362 q 286 376 259 376 q 206 376 156 316 q 127 281 108 229 q 88 177 88 134 q 88 92 108 67 q 127 43 161 43 q 214 43 264 108 q 305 160 315 247 z"},"d":{"x_min":0,"x_max":432,"ha":432,"o":"m 265 95 q 211 -7 126 -7 q 80 -7 53 27 q 26 61 26 120 q 26 224 93 310 q 159 396 239 396 q 265 396 300 379 l 329 618 q 332 638 332 645 q 332 662 305 662 l 281 662 q 262 662 262 671 q 263 681 281 682 q 337 686 361 690 q 375 693 384 693 q 393 693 393 682 q 393 679 393 676 l 327 144 q 324 114 324 95 q 324 52 347 52 q 374 52 399 93 l 408 108 q 413 116 418 116 q 425 116 425 108 q 425 85 398 49 q 362 -2 320 -2 q 294 -2 284 13 q 273 29 268 72 q 267 80 265 95 z m 277 198 l 293 323 q 294 332 294 336 q 294 376 235 376 q 189 376 148 328 q 121 294 102 240 q 83 187 83 139 q 83 95 103 68 q 123 42 155 42 q 202 42 238 85 q 268 123 277 198 z"},"1":{"x_min":0,"x_max":500,"ha":500,"o":"m 339 521 l 289 116 q 287 95 287 81 q 287 28 341 28 q 373 28 372 11 q 371 -3 351 -3 q 347 -3 335 -2 q 296 2 251 2 q 211 2 184 0 l 167 -2 l 158 -3 q 152 -3 149 -3 q 131 -3 131 11 q 131 27 155 28 q 192 30 203 46 q 215 63 223 124 l 269 500 q 272 530 272 544 q 272 568 251 568 q 239 568 216 559 q 206 555 199 555 q 187 555 187 567 q 187 580 208 589 l 247 607 q 291 626 300 632 q 309 638 331 656 q 344 668 351 668 q 363 668 362 656 q 362 644 356 624 q 347 588 339 521 z"},"5":{"x_min":0,"x_max":500,"ha":500,"o":"m 200 432 q 238 438 261 438 q 343 438 389 394 q 436 351 436 273 q 436 166 351 76 q 272 -7 167 -7 q 120 -7 77 8 q 35 22 35 39 q 35 56 52 55 q 61 55 72 50 q 120 31 155 31 q 234 31 288 87 q 354 156 354 251 q 354 305 320 338 q 286 372 230 372 q 204 372 186 368 q 170 365 166 365 q 146 365 146 383 q 146 390 149 400 l 225 628 q 230 645 237 649 q 245 654 263 654 l 416 654 q 438 654 445 656 q 452 659 467 671 q 478 680 487 680 q 501 680 501 669 q 500 663 496 656 l 454 591 q 445 577 427 577 l 276 577 q 258 577 251 573 q 244 568 239 553 l 236 542 z"}}}
